<svg xmlns="http://www.w3.org/2000/svg" xmlns:xlink="http://www.w3.org/1999/xlink" width="60" height="60" viewBox="0 0 60 60">
  <defs>
    <linearGradient id="linear-gradient" x1="0.5" x2="0.5" y2="1" gradientUnits="objectBoundingBox">
      <stop offset="0" stop-color="#9515f1"/>
      <stop offset="1" stop-color="#a42daa"/>
    </linearGradient>
    <linearGradient id="linear-gradient-5" x1="-0.576" y1="0.182" x2="2.724" y2="1.473" gradientUnits="objectBoundingBox">
      <stop offset="0" stop-color="#a42daa"/>
      <stop offset="1" stop-color="#9515f1"/>
    </linearGradient>
  </defs>
  <g id="_024-message" data-name="024-message" transform="translate(-22 -22)">
    <path id="Trazado_16287" data-name="Trazado 16287" d="M74.429,44.873a10.215,10.215,0,0,0,.071-1.155V32.157A10.168,10.168,0,0,0,64.343,22H32.157A10.168,10.168,0,0,0,22,32.157V43.718a10.08,10.08,0,0,0,7.5,9.765v4.142a1.876,1.876,0,0,0,3.047,1.465l6.517-5.215h5.481c-.02.26-.044.52-.044.782V66.218A10.08,10.08,0,0,0,52,75.983v4.142a1.876,1.876,0,0,0,3.047,1.465l6.517-5.215H71.843A10.168,10.168,0,0,0,82,66.218V54.657a10.11,10.11,0,0,0-7.571-9.784ZM38.406,50.125a1.878,1.878,0,0,0-1.172.41L33.25,53.723v-1.8a1.874,1.874,0,0,0-1.7-1.866,6.364,6.364,0,0,1-5.8-6.337V32.157a6.415,6.415,0,0,1,6.407-6.407H64.343a6.415,6.415,0,0,1,6.407,6.407V43.718a6.415,6.415,0,0,1-6.407,6.407ZM78.25,66.218a6.415,6.415,0,0,1-6.407,6.407H60.906a1.878,1.878,0,0,0-1.172.41L55.75,76.223v-1.8a1.874,1.874,0,0,0-1.7-1.866,6.364,6.364,0,0,1-5.8-6.337V54.657a6.494,6.494,0,0,1,.089-.782h16a10.162,10.162,0,0,0,8.983-5.43,6.377,6.377,0,0,1,4.924,6.211Z" transform="translate(0 0)"/>
    <path id="Trazado_16288" data-name="Trazado 16288" d="M171.146,63.878A1.877,1.877,0,0,0,169.268,62h-9.39a1.878,1.878,0,0,0,0,3.756h9.39A1.877,1.877,0,0,0,171.146,63.878Z" transform="translate(-104.139 -30.626)" fill="url(#linear-gradient)"/>
    <path id="Trazado_16289" data-name="Trazado 16289" d="M123.634,94h-3.756a1.878,1.878,0,1,0,0,3.756h3.756a1.878,1.878,0,1,0,0-3.756Z" transform="translate(-73.505 -55.127)" fill="url(#linear-gradient)"/>
    <path id="Trazado_16290" data-name="Trazado 16290" d="M65.268,94h-9.39a1.878,1.878,0,1,0,0,3.756h9.39a1.878,1.878,0,1,0,0-3.756Z" transform="translate(-24.488 -55.127)" fill="url(#linear-gradient)"/>
    <path id="Trazado_16291" data-name="Trazado 16291" d="M74.658,62H55.878a1.878,1.878,0,0,0,0,3.756h18.78a1.878,1.878,0,0,0,0-3.756Z" transform="translate(-24.488 -30.626)" fill="url(#linear-gradient)"/>
    <g id="Grupo_9860" data-name="Grupo 9860" transform="translate(53.973 58.988)">
      <ellipse id="Elipse_196" data-name="Elipse 196" cx="2" cy="1.879" rx="2" ry="1.879" transform="translate(7)" fill="url(#linear-gradient-5)"/>
      <ellipse id="Elipse_197" data-name="Elipse 197" cx="2" cy="1.879" rx="2" ry="1.879" transform="translate(15)" fill="url(#linear-gradient-5)"/>
      <ellipse id="Elipse_198" data-name="Elipse 198" cx="2" cy="1.879" rx="2" ry="1.879" fill="url(#linear-gradient-5)"/>
    </g>
  </g>
</svg>
