<svg xmlns="http://www.w3.org/2000/svg" xmlns:xlink="http://www.w3.org/1999/xlink" width="49.65" height="49.65" viewBox="0 0 49.65 49.65">
  <defs>
    <linearGradient id="linear-gradient" x1="1.744" y1="0.232" x2="0.5" y2="1" gradientUnits="objectBoundingBox">
      <stop offset="0" stop-color="#9515f1"/>
      <stop offset="1" stop-color="#a42daa"/>
    </linearGradient>
  </defs>
  <g id="_013-earth" data-name="013-earth" transform="translate(-30 -30)">
    <path id="Trazado_16296" data-name="Trazado 16296" d="M168.48,54.825a24.839,24.839,0,0,0-23.024-24.734,1.61,1.61,0,0,0-.336-.017c-.487-.029-.971-.074-1.465-.074a1.655,1.655,0,1,0,0,3.31c.334,0,.659.035.989.05a25.324,25.324,0,0,1,5.883,7.907,21.511,21.511,0,0,1-6.872,1.143,1.655,1.655,0,1,0,0,3.31,24.83,24.83,0,0,0,8.153-1.389,31.445,31.445,0,0,1,1.722,8.838h-9.875a1.655,1.655,0,1,0,0,3.31h9.875a31.333,31.333,0,0,1-1.995,9.579,24.82,24.82,0,0,0-7.88-1.3,1.655,1.655,0,1,0,0,3.31,21.508,21.508,0,0,1,6.519,1.034,25.094,25.094,0,0,1-5.53,7.191c-.33.015-.655.05-.989.05a1.655,1.655,0,0,0,0,3.31c.522,0,1.033-.047,1.548-.078.037,0,.072.023.109.023a1.718,1.718,0,0,0,.236-.041A24.84,24.84,0,0,0,168.48,54.825ZM150.015,34.271a21.458,21.458,0,0,1,6.836,3.6,21.379,21.379,0,0,1-3.283,2.1A29.988,29.988,0,0,0,150.015,34.271Zm4.831,8.758a24.668,24.668,0,0,0,4.488-2.89,21.413,21.413,0,0,1,5.753,13.032h-8.248A34.722,34.722,0,0,0,154.846,43.029Zm1.993,13.452h8.248A21.446,21.446,0,0,1,158.888,70a24.66,24.66,0,0,0-4.3-2.687A34.642,34.642,0,0,0,156.839,56.48Zm-3.6,13.86a21.423,21.423,0,0,1,3.06,1.854,21.427,21.427,0,0,1-6.285,3.185A29.823,29.823,0,0,0,153.24,70.34Z" transform="translate(-88.83 0)" fill="url(#linear-gradient)"/>
    <path id="Trazado_16297" data-name="Trazado 16297" d="M54.825,76.34a21.5,21.5,0,0,1-3.318-.283L54.756,65.23a1.659,1.659,0,0,0-.016-1l-1.655-4.965a1.653,1.653,0,0,0-1.569-1.131H43.631l-3.31-1.655.349-.175a1.652,1.652,0,0,0,.883-1.156l1.53-7.656L49.2,42.909a1.654,1.654,0,0,0,.444-2.145l-3.269-5.719a21.388,21.388,0,0,1,8.452-1.735,1.655,1.655,0,1,0,0-3.31,24.657,24.657,0,0,0-11.553,2.87c-.013.007-.027.006-.04.013s-.009.01-.015.013A24.86,24.86,0,0,0,30.273,51.348v.005A24.566,24.566,0,0,0,48.911,78.909s.007,0,.012.006.019,0,.029,0a24.722,24.722,0,0,0,5.874.731,1.655,1.655,0,1,0,0-3.31ZM42.5,61.271a1.655,1.655,0,0,0,.74.175h7.082l1.112,3.336L48.275,75.313A21.376,21.376,0,0,1,44.019,73.4l-.8-5.569a1.66,1.66,0,0,0-.469-.936l-4.689-4.689-1.261-3.783ZM43.449,36.6l2.594,4.539-5.45,4.089a1.648,1.648,0,0,0-.63,1l-1.5,7.481L35.88,55a1.663,1.663,0,0,0-.176.121l-.825-2.474a1.682,1.682,0,0,0-.3-.537l-.914-1.1A21.537,21.537,0,0,1,43.449,36.6ZM35.593,64.414l4.432,4.433.255,1.787a21.607,21.607,0,0,1-4.687-6.219Z" transform="translate(0 0)"/>
  </g>
</svg>
