<svg xmlns="http://www.w3.org/2000/svg" xmlns:xlink="http://www.w3.org/1999/xlink" width="40" height="53.334" viewBox="0 0 40 53.334">
  <defs>
    <linearGradient id="linear-gradient" x1="0.5" x2="0.5" y2="1" gradientUnits="objectBoundingBox">
      <stop offset="0" stop-color="#9515f1"/>
      <stop offset="1" stop-color="#a42daa"/>
    </linearGradient>
  </defs>
  <g id="Grupo_9875" data-name="Grupo 9875" transform="translate(2307.824 -6.001)">
    <path id="Trazado_16302" data-name="Trazado 16302" d="M-2181.771,308.361h-8.333a1.665,1.665,0,0,1-1.667-1.667,1.665,1.665,0,0,1,1.667-1.667h8.333a1.666,1.666,0,0,1,1.667,1.667A1.666,1.666,0,0,1-2181.771,308.361Z" transform="translate(-101.886 -262.524)"/>
    <path id="Trazado_16303" data-name="Trazado 16303" d="M-2171.45,349.321h-5a1.666,1.666,0,0,1-1.667-1.667,1.666,1.666,0,0,1,1.667-1.667h5a1.666,1.666,0,0,1,1.667,1.667A1.666,1.666,0,0,1-2171.45,349.321Z" transform="translate(-113.874 -298.484)"/>
    <g id="Grupo_9874" data-name="Grupo 9874" transform="translate(-2299.161 17.983)">
      <path id="Trazado_16304" data-name="Trazado 16304" d="M-2214.253,122.028a10.865,10.865,0,0,0-6.286-6.819,6.612,6.612,0,0,0,1.682-4.382,6.673,6.673,0,0,0-6.667-6.667,6.673,6.673,0,0,0-6.667,6.667,6.61,6.61,0,0,0,1.682,4.382,10.864,10.864,0,0,0-6.286,6.819,1.67,1.67,0,0,0,.267,1.466,1.672,1.672,0,0,0,1.333.666h19.343a1.671,1.671,0,0,0,1.333-.666A1.668,1.668,0,0,0-2214.253,122.028Zm-14.6-11.2a3.338,3.338,0,0,1,3.333-3.333,3.338,3.338,0,0,1,3.333,3.333,3.338,3.338,0,0,1-3.333,3.333A3.338,3.338,0,0,1-2228.857,110.826Zm-3.678,10a8.678,8.678,0,0,1,7.012-3.333,8.677,8.677,0,0,1,7.012,3.333Z" transform="translate(2236.862 -104.16)" fill="url(#linear-gradient)"/>
    </g>
    <path id="Trazado_16305" data-name="Trazado 16305" d="M-2273.48,6h-28.688a5.663,5.663,0,0,0-5.656,5.656V53.679a5.663,5.663,0,0,0,5.656,5.656h28.688a5.663,5.663,0,0,0,5.656-5.656V11.657A5.663,5.663,0,0,0-2273.48,6Zm2.323,11.081V46h0v7.678A2.325,2.325,0,0,1-2273.48,56h-28.688a2.325,2.325,0,0,1-2.323-2.323V11.657a2.325,2.325,0,0,1,2.323-2.323h28.688a2.325,2.325,0,0,1,2.323,2.323v5.425Z" transform="translate(0 0)"/>
  </g>
</svg>
