<svg xmlns="http://www.w3.org/2000/svg" xmlns:xlink="http://www.w3.org/1999/xlink" width="178.733" height="66.275" viewBox="0 0 178.733 66.275">
  <defs>
    <linearGradient id="linear-gradient" x1="-5.967" y1="3.411" x2="5.158" y2="-1.597" gradientUnits="objectBoundingBox">
      <stop offset="0" stop-color="#9515f1"/>
      <stop offset="1" stop-color="#a42daa"/>
    </linearGradient>
    <linearGradient id="linear-gradient-2" x1="-0.004" y1="1.232" x2="0.846" y2="-0.158" xlink:href="#linear-gradient"/>
  </defs>
  <g id="Grupo_2524" data-name="Grupo 2524" transform="translate(-261.017 -699.241)">
    <circle id="Elipse_164" data-name="Elipse 164" cx="6.825" cy="6.825" r="6.825" transform="translate(327.762 699.241)" fill="url(#linear-gradient)"/>
    <path id="Trazado_11245" data-name="Trazado 11245" d="M438.429,746.922,425.017,733.5a11.9,11.9,0,0,0-1.26-.929l.009-.009c-.1-.066-.2-.121-.3-.184-.04-.025-.08-.054-.12-.078h-.008a17.253,17.253,0,0,0-2.862-1.378,24.41,24.41,0,0,0-8.094-1.383,23.12,23.12,0,0,0-20.385,11.589,22.233,22.233,0,0,0-1.963,4.5L386.9,755.743a.312.312,0,0,1-.6,0L378.322,730.2a.312.312,0,0,0-.3-.219H368.17a.312.312,0,0,0-.3.219L359.9,755.743a.312.312,0,0,1-.6,0l-7.886-25.54a.313.313,0,0,0-.3-.22H317.834L309.583,756.7l-8.344-26.721H290.926L282.581,756.7l-8.25-26.721H261.017l15.939,43.785h10.5l8.719-28.409,9,28.409h10.5l12.487-35.34v35.34h12.847v-35.6l12.885,35.4a.312.312,0,0,0,.293.206h10.052a.312.312,0,0,0,.3-.221l8.358-27.231a.312.312,0,0,1,.6,0l8.629,27.237a.312.312,0,0,0,.3.218h10.052a.312.312,0,0,0,.295-.208l2.172-6.149a23.574,23.574,0,0,0,17.029,7.473l2.492,2.493a4.522,4.522,0,0,0,6.4,0l2.842-2.844.006,0,.005-.006,4.51-4.513h0l7.312-7.317a4.529,4.529,0,0,0,0-6.394l-.041-.041,2.937-2.94A4.53,4.53,0,0,0,438.429,746.922Zm-4.494,14.172-1.993,1.994-6.839-6.841a1.13,1.13,0,1,0-1.6,1.6l6.84,6.842-2.923,2.924-6.839-6.84a1.13,1.13,0,1,0-1.6,1.6l6.839,6.842-2.918,2.919-6.838-6.84a1.13,1.13,0,1,0-1.6,1.6l6.839,6.841-2.05,2.051a2.262,2.262,0,0,1-3.2,0l-14.441-14.449a13.881,13.881,0,0,1,.725-18.943,14.611,14.611,0,0,1,10.036-3.808,15.45,15.45,0,0,1,3.739.465l-7.205,7.21a1.131,1.131,0,0,0,0,1.6l2.194,2.2a7.575,7.575,0,0,0,10.718,0l2.133-2.135,9.137,9.144.02.016.821.821A2.267,2.267,0,0,1,433.935,761.094Zm2.9-9.375-2.937,2.939-8.035-8.039h0l-1.069-1.069c-.006-.007-.014-.011-.02-.017s-.008-.012-.014-.017a1.128,1.128,0,0,0-1.6,0l-2.932,2.934a5.316,5.316,0,0,1-7.521,0l-1.4-1.4,6.691-6.7,0,0,5.335-5.339,13.494,13.505A2.267,2.267,0,0,1,436.831,751.719Z" transform="translate(0 -13.184)" fill="url(#linear-gradient-2)"/>
  </g>
</svg>
