<svg xmlns="http://www.w3.org/2000/svg" xmlns:xlink="http://www.w3.org/1999/xlink" width="1008.318" height="980.498" viewBox="0 0 1008.318 980.498">
  <defs>
    <linearGradient id="linear-gradient" y1="0.5" x2="1" y2="0.5" gradientUnits="objectBoundingBox">
      <stop offset="0" stop-color="#9515f1"/>
      <stop offset="1" stop-color="#a42daa"/>
    </linearGradient>
  </defs>
  <path id="Trazado_16286" data-name="Trazado 16286" d="M688.852,29.28,421.364-238.4a236.676,236.676,0,0,0-25.14-18.53l.183-.182c-2.01-1.313-4.03-2.409-6.051-3.665-.8-.491-1.587-1.073-2.386-1.564-.057,0-.114.011-.171.011a344.662,344.662,0,0,0-57.085-27.492A487.152,487.152,0,0,0,169.267-317.4c-245.019,0-462.386,180.536-462.386,453.172,0,267.784,212.56,447.178,454.2,451.163l49.7,49.721a90.214,90.214,0,0,0,127.619,0l56.7-56.731.115-.092.091-.114,89.943-90h.011v-.011l145.84-145.92a90.335,90.335,0,0,0-.023-127.539l-.811-.811,58.592-58.626A90.345,90.345,0,0,0,688.852,29.28ZM599.217,311.94l-39.754,39.777-136.4-136.444a22.532,22.532,0,1,0-31.876,31.853L527.61,383.593l-58.295,58.318-136.4-136.432a22.528,22.528,0,1,0-31.865,31.853l136.41,136.455-58.2,58.238L242.872,395.592A22.536,22.536,0,0,0,211,427.457L347.405,563.9l-40.9,40.907a45.134,45.134,0,0,1-63.855,0l-288-288.186c-33.5-36.454-67.52-94.692-67.52-180.844C-112.869,36.13-68.285-26.332-30.9-61.2c52.53-48.967,123.623-75.946,200.162-75.946a308.082,308.082,0,0,1,74.564,9.282L100.137,15.945a22.533,22.533,0,0,0-.011,31.854L143.9,91.6a150.106,150.106,0,0,0,106.885,44.3A150.079,150.079,0,0,0,357.657,91.6L400.2,49.031,582.434,231.417c.125.114.262.194.388.32l16.383,16.383A45.2,45.2,0,0,1,599.217,311.94Zm57.758-186.986L598.406,183.58,438.147,23.252l-.023-.011L416.809,1.9c-.126-.125-.274-.217-.411-.343-.1-.1-.171-.228-.274-.331a22.505,22.505,0,0,0-31.865.011L325.781,59.752a105.3,105.3,0,0,1-75,31.088,105.33,105.33,0,0,1-75.009-31.088l-27.857-27.88L281.37-101.684l.057-.046L387.821-208.215,656.964,61.145A45.2,45.2,0,0,1,656.975,124.954Z" transform="translate(293.119 317.395)" opacity="0.05" fill="url(#linear-gradient)"/>
</svg>
