<svg xmlns="http://www.w3.org/2000/svg" xmlns:xlink="http://www.w3.org/1999/xlink" width="336.381" height="226.73" viewBox="0 0 336.381 226.73"><defs><style>.a{fill:#0071bc;}.b,.o,.q{fill:none;}.c{fill:#650e6a;}.d{fill:url(#a);}.e{fill:#b236b9;}.f{fill:url(#b);}.g{fill:#fff;}.h{fill:url(#c);}.i{clip-path:url(#d);}.j{fill:#a42daa;}.k{fill:#261175;}.l{fill:#620f66;}.m{fill:url(#e);}.n{clip-path:url(#f);}.o{stroke:#333;}.o,.q{stroke-miterlimit:10;}.p{clip-path:url(#g);}.q{stroke:#fff;stroke-width:2px;}</style><linearGradient id="a" x1="0.129" y1="0.381" x2="0.669" y2="0.973" gradientUnits="objectBoundingBox"><stop offset="0" stop-color="#8f1c94"/><stop offset="1" stop-color="#a42daa" stop-opacity="0"/></linearGradient><linearGradient id="b" x1="0.392" y1="0.373" x2="0.256" y2="1" gradientUnits="objectBoundingBox"><stop offset="0" stop-color="#741879"/><stop offset="1" stop-color="#a42daa" stop-opacity="0.09"/></linearGradient><linearGradient id="c" x1="0.231" y1="0.112" x2="0.867" y2="0.921" gradientUnits="objectBoundingBox"><stop offset="0" stop-color="#9515f1"/><stop offset="1" stop-color="#a42daa"/></linearGradient><clipPath id="d"><path class="a" d="M4198.829,1387.92l-75.535-2.64a13.2,13.2,0,0,0-13.685,12.622l-2.885,63.494a13.235,13.235,0,0,0,13.113,13.86l75.757-.3a13.2,13.2,0,0,0,13.245-12.651l2.662-60.554A13.237,13.237,0,0,0,4198.829,1387.92Z" transform="translate(-4106.71 -1385.27)"/></clipPath><linearGradient id="e" x1="0.245" y1="0.878" x2="1" y2="1" gradientUnits="objectBoundingBox"><stop offset="0" stop-color="#a42daa"/><stop offset="1" stop-color="#a42daa" stop-opacity="0"/></linearGradient><clipPath id="f"><path d="M5328.826,1862.852q-13.528-.3-27.044-.942c-8.124-.386-17.618.31-25.506-1.561-1.009-.24-1.965-.424-2.89-.6a28.255,28.255,0,0,1-4.1-.994,41.753,41.753,0,0,0-4.893-1.333c-1.153-.263-2.242-.51-3.208-.823a57.423,57.423,0,0,0-5.584-1.416c-.746-.163-1.491-.324-2.221-.5-6.016-1.443-12.181-2.3-18.144-3.124l-.654-.091c-6.935-.962-13.543-.259-19.935.421l-1.587.168c-1.807.189-3.475.522-5.089.845-1.324.265-2.575.515-3.774.656-3.366.4-6.676.979-9.183,1.44-.652.12-1.384.2-2.159.291-.9.1-1.833.207-2.834.387-1.175.211-2.246.482-3.283.745-.729.185-1.418.359-2.07.492-1.951.4-4.1.684-6.188.96l-1.486.2a78.24,78.24,0,0,1-13.5,1.049c-4.766-.216-8.434-.454-12.25-1.552-.536-.154-1.086-.3-1.644-.454a21.606,21.606,0,0,1-5.064-1.788,34.494,34.494,0,0,1-12.131-13.872,15.82,15.82,0,0,1-.635-1.827l-.105-.379-.156-.361a18.1,18.1,0,0,0-1.5-2.761c-.095-.288-.2-.786-.291-1.17l-.092-.411c-.228-1-.478-1.946-.72-2.859a36.737,36.737,0,0,1-.929-4.09,23.577,23.577,0,0,0-.66-2.948,12.548,12.548,0,0,1-.384-1.66c-.022-.212-.017-.612-.012-1,.008-.59.018-1.258-.042-2.013-.123-1.551-.311-3.061-.492-4.521-.168-1.362-.329-2.648-.431-3.913a20.076,20.076,0,0,1,.031-2.474c.045-.9.1-1.921.063-3-.026-.847-.088-1.633-.149-2.394-.068-.857-.132-1.668-.126-2.38.02-1.744.106-3.5.2-5.355.055-1.106.11-2.211.15-3.314a141.433,141.433,0,0,0-.527-15.359,51.031,51.031,0,0,0-1.1-6.938c-.126-.609-.254-1.22-.375-1.838-.113-.581-.208-1.23-.31-1.917a28.935,28.935,0,0,0-1.161-5.367,15.533,15.533,0,0,0-1.291-2.716c-.11-.195-.221-.389-.326-.59a9.771,9.771,0,0,1-.391-1.027,17.451,17.451,0,0,0-1.18-2.8,43.367,43.367,0,0,0-4.038-5.818l-.033-.042c-.09-.113-.29-.45-.437-.7a15.39,15.39,0,0,0-1.617-2.327,13.061,13.061,0,0,0-2.817-2.337c-.228-.151-.464-.308-.579-.4-.318-.252-.605-.5-.887-.745a18.268,18.268,0,0,0-3.925-2.744c-.186-.092-.475-.276-.781-.469a12.177,12.177,0,0,0-5.306-2.1,18.652,18.652,0,0,0-2.21-.086c-.231,0-.463,0-.687,0l-.427,11.472c.383.014.775.014,1.168.012.213,0,.459,0,.65,0,.18.1.448.27.658.4a19.994,19.994,0,0,0,1.783,1.034,7.873,7.873,0,0,1,1.558,1.168c.367.316.783.675,1.262,1.054.5.39.976.709,1.362.965.177.117.407.269.539.366.094.141.254.408.377.613a17.183,17.183,0,0,0,1.248,1.879l.032.041a33.693,33.693,0,0,1,3.015,4.265,9.3,9.3,0,0,1,.4,1.036,18.351,18.351,0,0,0,1.046,2.552c.172.332.354.655.536.976.157.278.373.658.423.795a20.119,20.119,0,0,1,.656,3.3c.116.787.234,1.6.4,2.444.13.668.268,1.327.4,1.983a41.91,41.91,0,0,1,.893,5.424,130.759,130.759,0,0,1,.505,14.118c-.039,1.051-.091,2.106-.145,3.161-.094,1.887-.191,3.838-.212,5.808-.012,1.227.08,2.385.161,3.407.052.654.1,1.272.119,1.842.019.614-.017,1.321-.054,2.069a29.5,29.5,0,0,0-.008,3.98c.122,1.507.3,2.975.482,4.395.173,1.4.336,2.717.44,4.013.016.223.012.576.007.949a19.08,19.08,0,0,0,.075,2.383,21.859,21.859,0,0,0,.723,3.454,14.367,14.367,0,0,1,.374,1.561,45.84,45.84,0,0,0,1.2,5.4c.226.852.44,1.656.621,2.454l.08.356a16.017,16.017,0,0,0,1.385,4.161l.186.357.234.327a6.415,6.415,0,0,1,.536.894,27.749,27.749,0,0,0,1.066,2.94l.143.308c2.821,5.636,7.968,13.45,16.471,18.677a30.016,30.016,0,0,0,8.08,3.091c.5.136.993.269,1.474.407,5.018,1.444,9.534,1.746,14.916,1.99l.36.015a90.449,90.449,0,0,0,15.192-1.155l1.463-.195c2.282-.3,4.641-.613,6.99-1.094.912-.187,1.763-.4,2.587-.611.882-.224,1.716-.434,2.491-.574.633-.114,1.341-.194,2.094-.279.894-.1,1.908-.217,2.953-.409,2.481-.457,5.425-.973,8.444-1.329,1.656-.2,3.195-.5,4.683-.8,1.418-.283,2.756-.551,4.028-.684l1.606-.17c5.964-.634,11.6-1.232,17.131-.465l.655.091c5.688.789,11.57,1.6,17.039,2.916.809.194,1.632.373,2.458.554,1.611.35,3.133.682,4.485,1.12,1.454.471,2.849.788,4.2,1.1a32.677,32.677,0,0,1,3.579.951,38.445,38.445,0,0,0,5.79,1.455c.845.163,1.642.317,2.42.5a71.742,71.742,0,0,0,15.176,1.661l38.73.477M5097.39,1747.714Z" transform="translate(-5095.712 -1736.3)"/></clipPath><clipPath id="g"><path class="b" d="M4504.231,1389.61l-15.634,30.938-36.645,17.245-3.688,17.03,66.911-.91,2.08-50.422S4517.051,1390.823,4504.231,1389.61Z" transform="translate(-4448.265 -1389.61)"/></clipPath></defs><g transform="translate(0 0)"><path class="c" d="M4654.974,1237.673c-2.944,1.489-5.581,4.4-7.59,7.024a65.194,65.194,0,0,0-3.811,5.833,53.232,53.232,0,0,1-3.376,4.39,11.506,11.506,0,0,1-1.231,1.8,19.606,19.606,0,0,1-2.1,1.689c-.937.626-1.849,1.535-2.838,2.217a17.492,17.492,0,0,1,1.542.98,11.9,11.9,0,0,0,3.318.7,33.154,33.154,0,0,0,3.5.558,21.123,21.123,0,0,1,3.7.507,20.771,20.771,0,0,0,2.684.742,7.112,7.112,0,0,1,1.887.308,3.84,3.84,0,0,0,2.355.334c.113-.487-.021-.955.1-1.448.184-.772.534-1.539.77-2.3.358-1.155.8-2.281,1.176-3.43.561-1.715.845-3.486,1.536-5.16.658-1.595.743-3.188,1.262-4.813.467-1.461.929-3.006,1.267-4.505" transform="translate(-4578.97 -1200.364)"/><path class="d" d="M5075.1,1706.724s-4.083,50.751,38.966,82.081c13.5,9.822,24.516,20.021,41.394,28.513l7.433-8.62-43.509-40.329s-14.642-66.963-33.137-80.994" transform="translate(-4973.891 -1603.11)"/><path class="e" d="M4826.688,1232.982l.187-.241c-.484-.617-.191-2.225-.188-2.99a30.778,30.778,0,0,0-.29-3.477,23.146,23.146,0,0,0-.184-3.195c-.419-1.7-2.314-2.165-3.432-3.4a28.827,28.827,0,0,0-3.1-2.784,29.141,29.141,0,0,1-6.376-8.068,42.333,42.333,0,0,1-3.213-5.891,53.594,53.594,0,0,1-2.021-6.718,15.812,15.812,0,0,1-.762-2.828c-.054-1.043.008-2.107.008-3.153a11.658,11.658,0,0,1-.012-2.1,9.6,9.6,0,0,1,.61-1.57,5.638,5.638,0,0,1,1.017-1.874,26.252,26.252,0,0,1,8.191-5.933c1.563-.7,3.436-.713,5.093-1.021a8.787,8.787,0,0,1,4.545.152,18.264,18.264,0,0,1,4.1,2.05,16.7,16.7,0,0,1,4.51,3.678c1.191,1.627,2.641,2.88,3.679,4.636.553.936,1.149,1.85,1.685,2.795.5.882.8,1.854,1.333,2.711a27.893,27.893,0,0,1,2.481,5.908c.644,1.863,1.478,3.658,2.045,5.549a79.037,79.037,0,0,1,2.349,13.671,51.37,51.37,0,0,1,.389,6.29c-.016,1.469.338,2.833.312,4.287-.019,1.02.333,1.863.327,2.88,0,.514-.222,1.582.186,1.937l-.186-.024" transform="translate(-4734.103 -1146.485)"/><path class="f" d="M4593.84,1702.645s-46.2,21.41-52.3,74.3c-1.914,16.582-5.374,31.194-4.464,50.065l11.161,2.232,13.712-57.719s45.84-39.941,45.84-66.727" transform="translate(-4492.007 -1616.785)"/><path class="g" d="M4674.414,904.644c-.5-.746-1.206-1.319-1.74-2.037a3.675,3.675,0,0,0-1.158-.98,13.243,13.243,0,0,0-3-1.074,7.062,7.062,0,0,0-4.038.151,15.444,15.444,0,0,0-2.56,1.083c-.9.485-1.851.931-2.729,1.458a8.3,8.3,0,0,0-1.894,1.792,7.624,7.624,0,0,0-.716,1.025c-.22.4-.523.73-.75,1.129s-.365.911-.566,1.333a10.807,10.807,0,0,0-.6,1.374c-.139.467-.07.97-.184,1.452a8.388,8.388,0,0,0-.171,1.436,13.374,13.374,0,0,0,.431,4.778,11.345,11.345,0,0,0,.816,2.435c.419.763.822,1.536,1.232,2.3a20.382,20.382,0,0,0,3.937,4.883,5.542,5.542,0,0,0,4.171,1.788c.845-.07,1.7-.04,2.545-.04,1.066,0,1.758-.182,2.49.623a16.808,16.808,0,0,1,2.5,3.194,31.31,31.31,0,0,0,1.313,2.917.236.236,0,0,1-.128-.273c2.264-1.736,5.089-2.7,7.495-4.193.869-.54,2.135-1.555,3.2-1.686a6.206,6.206,0,0,0-.854-.886,13.638,13.638,0,0,1-.959-1.423c-.367-.536-.73-1.1-1.111-1.622a30.046,30.046,0,0,1-1.507-2.633c-.264-.449-.688-.841-.973-1.265a7.284,7.284,0,0,1-.628-1.357,3.9,3.9,0,0,1-.241-.971c-.047-.265-.206-.509-.249-.7a4.349,4.349,0,0,1,.136-1.495,3.112,3.112,0,0,0-.186-1.378c-.329-1.25-.416-2.6-.655-3.871A19.076,19.076,0,0,0,4674.414,904.644Z" transform="translate(-4597.08 -898.242)"/><g transform="translate(0 52.72)"><path class="h" d="M4198.829,1387.92l-75.535-2.64a13.2,13.2,0,0,0-13.685,12.622l-2.885,63.494a13.235,13.235,0,0,0,13.113,13.86l75.757-.3a13.2,13.2,0,0,0,13.245-12.651l2.662-60.554A13.237,13.237,0,0,0,4198.829,1387.92Z" transform="translate(-4106.71 -1385.27)"/><g class="i" transform="translate(0)"><path class="j" d="M4071.742,1360.093l19.165-.593-3.826,93.037-16.711-.264Z" transform="translate(-4074.164 -1362.191)"/></g></g><path d="M4439.842,2939.628c0,.143-.007.285-.01.428.01-.475.051-.962.038-1.436-.015-.5-.2-.889-.216-1.392-.038-1.169-.722-2.261-.886-3.424l-13.167-2.309c-.389.045-.967,1.151-1.233,1.479a13.931,13.931,0,0,1-1.728,2,24.6,24.6,0,0,1-3.016,1.944c-.848.53-1.776.732-2.586,1.32-.336.245-1.553,1.3-1.483,1.769,0-.053.005-.106.009-.16" transform="translate(-4383.304 -2717.323)"/><ellipse class="k" cx="5.262" cy="3.216" rx="5.262" ry="3.216" transform="matrix(0.062, -0.998, 0.998, 0.062, 5.23, 79.955)"/><ellipse class="k" cx="5.262" cy="3.216" rx="5.262" ry="3.216" transform="translate(4.752 100.284) rotate(-86.418)"/><ellipse class="k" cx="5.262" cy="3.216" rx="5.262" ry="3.216" transform="translate(4.274 120.613) rotate(-86.418)"/><path class="l" d="M4689.238,901.89a3.177,3.177,0,0,0,.677-.909c.232-.338.648-.581.77-.992-.008-.168-.017-.336-.025-.5a.34.34,0,0,1,.2-.279,2.986,2.986,0,0,0,.052-.665,5.768,5.768,0,0,0-.956-2.869,27.084,27.084,0,0,1-1.74-3.344,28.742,28.742,0,0,1-.7-2.916,7.067,7.067,0,0,1-.386-1.1q-.035-.492-.1-.98c-.089-.345-.1-.69-.163-1.015a7.558,7.558,0,0,0-2.4-3.619,10.542,10.542,0,0,0-3.36-1.854c-2.6-.994-5.274-.328-7.641,1.017-1.427.81-2.918,1.414-3.84,2.8-.628.949-1.519,1.65-2.1,2.643-.283.484-1.106,1.666-.9,2.157.028-.036.071-.039.13-.011v.239c-.2-.664,1.248-1.758,1.663-2.123a13.688,13.688,0,0,1,3.131-2.29,15.3,15.3,0,0,1,2.38-.557,2.72,2.72,0,0,1,2.166.407c.629.565.564,1.474.757,2.184.1.373.259.5.169.943-.08.4-.185.792-.274,1.184a5.442,5.442,0,0,0-.437,2.171,8.977,8.977,0,0,1,.25,1.136,2.4,2.4,0,0,0,.261,1.118,1.653,1.653,0,0,0,.517.322c.385.038.293-.122.645-.2a4.358,4.358,0,0,0,.731-.1,4.027,4.027,0,0,0,.783-.547,7.332,7.332,0,0,1,2.914-1.742,3.049,3.049,0,0,1,1.571.242,2.17,2.17,0,0,1,1.253,1.2c.667,1.529-.444,2.789-.913,4.193-.507,1.522.385,2.72,1.566,3.517a5.062,5.062,0,0,0,1.908.905c.829.1,1.285.389,2.158-.006" transform="translate(-4608.133 -880.366)"/><g transform="translate(103.267 89.373)"><path class="m" d="M5328.826,1862.852q-13.528-.3-27.044-.942c-8.124-.386-17.618.31-25.506-1.561-1.009-.24-1.965-.424-2.89-.6a28.255,28.255,0,0,1-4.1-.994,41.753,41.753,0,0,0-4.893-1.333c-1.153-.263-2.242-.51-3.208-.823a57.423,57.423,0,0,0-5.584-1.416c-.746-.163-1.491-.324-2.221-.5-6.016-1.443-12.181-2.3-18.144-3.124l-.654-.091c-6.935-.962-13.543-.259-19.935.421l-1.587.168c-1.807.189-3.475.522-5.089.845-1.324.265-2.575.515-3.774.656-3.366.4-6.676.979-9.183,1.44-.652.12-1.384.2-2.159.291-.9.1-1.833.207-2.834.387-1.175.211-2.246.482-3.283.745-.729.185-1.418.359-2.07.492-1.951.4-4.1.684-6.188.96l-1.486.2a78.24,78.24,0,0,1-13.5,1.049c-4.766-.216-8.434-.454-12.25-1.552-.536-.154-1.086-.3-1.644-.454a21.606,21.606,0,0,1-5.064-1.788,34.494,34.494,0,0,1-12.131-13.872,15.82,15.82,0,0,1-.635-1.827l-.105-.379-.156-.361a18.1,18.1,0,0,0-1.5-2.761c-.095-.288-.2-.786-.291-1.17l-.092-.411c-.228-1-.478-1.946-.72-2.859a36.737,36.737,0,0,1-.929-4.09,23.577,23.577,0,0,0-.66-2.948,12.548,12.548,0,0,1-.384-1.66c-.022-.212-.017-.612-.012-1,.008-.59.018-1.258-.042-2.013-.123-1.551-.311-3.061-.492-4.521-.168-1.362-.329-2.648-.431-3.913a20.076,20.076,0,0,1,.031-2.474c.045-.9.1-1.921.063-3-.026-.847-.088-1.633-.149-2.394-.068-.857-.132-1.668-.126-2.38.02-1.744.106-3.5.2-5.355.055-1.106.11-2.211.15-3.314a141.433,141.433,0,0,0-.527-15.359,51.031,51.031,0,0,0-1.1-6.938c-.126-.609-.254-1.22-.375-1.838-.113-.581-.208-1.23-.31-1.917a28.935,28.935,0,0,0-1.161-5.367,15.533,15.533,0,0,0-1.291-2.716c-.11-.195-.221-.389-.326-.59a9.771,9.771,0,0,1-.391-1.027,17.451,17.451,0,0,0-1.18-2.8,43.367,43.367,0,0,0-4.038-5.818l-.033-.042c-.09-.113-.29-.45-.437-.7a15.39,15.39,0,0,0-1.617-2.327,13.061,13.061,0,0,0-2.817-2.337c-.228-.151-.464-.308-.579-.4-.318-.252-.605-.5-.887-.745a18.268,18.268,0,0,0-3.925-2.744c-.186-.092-.475-.276-.781-.469a12.177,12.177,0,0,0-5.306-2.1,18.652,18.652,0,0,0-2.21-.086c-.231,0-.463,0-.687,0l-.427,11.472c.383.014.775.014,1.168.012.213,0,.459,0,.65,0,.18.1.448.27.658.4a19.994,19.994,0,0,0,1.783,1.034,7.873,7.873,0,0,1,1.558,1.168c.367.316.783.675,1.262,1.054.5.39.976.709,1.362.965.177.117.407.269.539.366.094.141.254.408.377.613a17.183,17.183,0,0,0,1.248,1.879l.032.041a33.693,33.693,0,0,1,3.015,4.265,9.3,9.3,0,0,1,.4,1.036,18.351,18.351,0,0,0,1.046,2.552c.172.332.354.655.536.976.157.278.373.658.423.795a20.119,20.119,0,0,1,.656,3.3c.116.787.234,1.6.4,2.444.13.668.268,1.327.4,1.983a41.91,41.91,0,0,1,.893,5.424,130.759,130.759,0,0,1,.505,14.118c-.039,1.051-.091,2.106-.145,3.161-.094,1.887-.191,3.838-.212,5.808-.012,1.227.08,2.385.161,3.407.052.654.1,1.272.119,1.842.019.614-.017,1.321-.054,2.069a29.5,29.5,0,0,0-.008,3.98c.122,1.507.3,2.975.482,4.395.173,1.4.336,2.717.44,4.013.016.223.012.576.007.949a19.08,19.08,0,0,0,.075,2.383,21.859,21.859,0,0,0,.723,3.454,14.367,14.367,0,0,1,.374,1.561,45.84,45.84,0,0,0,1.2,5.4c.226.852.44,1.656.621,2.454l.08.356a16.017,16.017,0,0,0,1.385,4.161l.186.357.234.327a6.415,6.415,0,0,1,.536.894,27.749,27.749,0,0,0,1.066,2.94l.143.308c2.821,5.636,7.968,13.45,16.471,18.677a30.016,30.016,0,0,0,8.08,3.091c.5.136.993.269,1.474.407,5.018,1.444,9.534,1.746,14.916,1.99l.36.015a90.449,90.449,0,0,0,15.192-1.155l1.463-.195c2.282-.3,4.641-.613,6.99-1.094.912-.187,1.763-.4,2.587-.611.882-.224,1.716-.434,2.491-.574.633-.114,1.341-.194,2.094-.279.894-.1,1.908-.217,2.953-.409,2.481-.457,5.425-.973,8.444-1.329,1.656-.2,3.195-.5,4.683-.8,1.418-.283,2.756-.551,4.028-.684l1.606-.17c5.964-.634,11.6-1.232,17.131-.465l.655.091c5.688.789,11.57,1.6,17.039,2.916.809.194,1.632.373,2.458.554,1.611.35,3.133.682,4.485,1.12,1.454.471,2.849.788,4.2,1.1a32.677,32.677,0,0,1,3.579.951,38.445,38.445,0,0,0,5.79,1.455c.845.163,1.642.317,2.42.5a71.742,71.742,0,0,0,15.176,1.661l38.73.477M5097.39,1747.714Z" transform="translate(-5095.712 -1736.3)"/><g class="n" transform="translate(0 0)"><path class="o" d="M5375.61,1804.387s-74.375-12.324-96.269-4.04-51.559,6.23-55.816-21.211.438-34.166.356-48.331c-.194-33.514-18.1-42.313-29.842-48.97" transform="translate(-5183.773 -1687.522)"/></g></g><g transform="translate(35.664 53.173)"><g class="p" transform="translate(0)"><path class="k" d="M4495.6,1454.93a70.056,70.056,0,0,0,17.52-1.8,198.329,198.329,0,0,0,30.411-8.783c4.463-1.686,8.925-3.566,12.695-6.492,4.536-3.521,8.9-9.358,9.78-15.185.748-4.933-5.44-9.278-9.6-10.828a14.934,14.934,0,0,0-11.985.587" transform="translate(-4490.657 -1408.648)"/></g></g><line class="q" x2="56.682" y2="2.152" transform="translate(17.248 55.485)"/><path class="j" d="M4755.929,1213.208a6.658,6.658,0,0,0-.456,1.184c-.258,1.094-.668,2.226-.866,3.331a24.644,24.644,0,0,1-.51,2.9c-.272.907-.291,1.851-.561,2.759a16.972,16.972,0,0,0-.578,2.516,12.522,12.522,0,0,1-1.841,4.677c-.72,1.166-1.622,2.142-2.273,3.346a39.551,39.551,0,0,0-2,3.493,11.536,11.536,0,0,0-.866,3.149c-.063.554-.12,1.11-.191,1.663a9.053,9.053,0,0,0,.115,1.418,8.444,8.444,0,0,1,1.645.808,15.318,15.318,0,0,0,2.042.819c1.281.372,2.352,1.075,3.643,1.416a4.706,4.706,0,0,1,1.012.307c.418.219.712.619,1.134.852a16.986,16.986,0,0,0,3.187,1.179c.823.255,1.432.858,2.3.963.059,1.272,1.475-1.063,1.7-1.369.488-.649.722-1.378,1.154-2.028.4-.6,1.058-.98,1.483-1.611,5.056-7.5,9.726-15.543,12.055-24.359.281-1.059.544-2.123.776-3.194.242-1.125.281-2.383.609-3.476.082-.274.238-.515.3-.808a7.636,7.636,0,0,0-.078-2.11,6.879,6.879,0,0,0-.415-2.629,14.731,14.731,0,0,1-.646-1.438,9.581,9.581,0,0,0-1.544-2.284,3.035,3.035,0,0,0-.5-.486c-.374-.337-.673-.747-1.046-1.092a5.144,5.144,0,0,0-1.648-1.039,4.555,4.555,0,0,1-1.086-.367,6.649,6.649,0,0,0-.733-.3,21.336,21.336,0,0,0-3.406-.875c-.255-.043-.465-.182-.72-.211a3.451,3.451,0,0,0-1.408.422c-.775.268-1.454.658-2.212.941a7.744,7.744,0,0,0-1.91,1.519,16.908,16.908,0,0,0-2.055,2.19c-1.407,1.622-1.806,3.451-2.66,5.322-.288.629-.466,1.26-.695,1.91C4756.106,1212.812,4756.018,1213.011,4755.929,1213.208Z" transform="translate(-4679.04 -1166.89)"/><g transform="translate(31.607 74.736)"><path class="g" d="M4529.755,1605.789a10.254,10.254,0,0,1-1.114,1.254c-.7.63-1.513.953-2.213,1.621a10.676,10.676,0,0,1-2.567,1.6c-1.036.556-2.124,1.022-3.14,1.61-3.476,2.009-7.607,3.142-11.411,4.338-2.855.9-5.408,2.558-8.38,2.991a40.17,40.17,0,0,0-4.947,1.343c-.751.208-1.539.31-2.3.518-.57.155-1.43.934-2,.831-.683-.124-1.1-1.588-1.376-2.1-.455-.858-.971-1.587-1.415-2.453.7-.666,1.8-.741,2.593-1.253.206-.132.354-.327.57-.449.652-.369,1.457-.554,2.141-.882a50.057,50.057,0,0,0,4.487-2.9,40.852,40.852,0,0,0,7.582-6.307c.827-.842,1.812-1.437,2.621-2.3a18.516,18.516,0,0,1,1.274-1.635,10.528,10.528,0,0,0,.886-.6c1.121-1.119,2.127-2.309,3.188-3.521.4-.457,1.339-1.505,2.053-1.383.44.075,1.063.718,1.448.955a40.8,40.8,0,0,0,3.879,1.856c1.041.5,1.859,1.317,2.921,1.79.745.332,1.465.686,2.225.94a22.149,22.149,0,0,1,2.286.863,23.034,23.034,0,0,0,2.371,1.362,5.584,5.584,0,0,0-1.019,1.125C4530.172,1605.262,4529.964,1605.526,4529.755,1605.789Z" transform="translate(-4480.59 -1596.112)"/><path class="g" d="M4424.374,1788.561c-.29-.094-.771.2-1.028.3a4.588,4.588,0,0,0-1.28.871,12.525,12.525,0,0,1-1.171.844c-.379.265-.577.66-.923.954a8.235,8.235,0,0,0-.955.777,18.657,18.657,0,0,1-1.331,1.4,4.161,4.161,0,0,1-.815.639,2.369,2.369,0,0,1-.631.247c-1.075-.077.622-1.454.725-1.624.128-.209.53-.695.183-.805s-1.6,1.153-1.867,1.364c-.571.444-1.13.969-1.717,1.383a1.138,1.138,0,0,1-.84.27c-.4-.018-.44-.023-.237-.428a5.27,5.27,0,0,1,1.015-1.276c.476-.493.934-1,1.442-1.46.266-.24.82-.565.876-.955-.4-.341-1.362.479-1.643.681-.577.415-1.189.745-1.755,1.19a4.663,4.663,0,0,1-1.6.887c-.28.077-.862.354-1.114.2-.9-.547,1.243-2.288,1.558-2.594a11.35,11.35,0,0,1,1.793-1.4,7.238,7.238,0,0,0,.729-.511,2.424,2.424,0,0,1,.348-.3c-.246-.36-.58-.14-.878,0a16.3,16.3,0,0,1-2.374,1.025c-.38.1-1.3.392-1.453-.185-.136-.52.664-.9,1.022-1.078.7-.354,1.517-.469,2.237-.792.461-.207.893-.526,1.336-.757a3.127,3.127,0,0,0,.953-.707c.245-.328.038-.542-.229-.812-.533-.538-1.258-1.046-1.333-1.851-.033-.338.077-.4.481-.46a2.43,2.43,0,0,1,1.166.205,16.2,16.2,0,0,0,2.616.46,6.444,6.444,0,0,0,.943.147,2.811,2.811,0,0,0,1.145-.292" transform="translate(-4409.413 -1764.018)"/></g></g></svg>