<svg xmlns="http://www.w3.org/2000/svg" xmlns:xlink="http://www.w3.org/1999/xlink" width="386.455" height="268.568" viewBox="0 0 386.455 268.568"><defs><style>.a{fill:#9515f1;}.b,.k{fill:none;}.c{fill:url(#a);}.d{fill:#fff;}.e{fill:url(#b);}.f{fill:url(#c);}.g{clip-path:url(#d);}.h{fill:#a943f2;}.i{fill:url(#e);}.j{clip-path:url(#f);}.k{stroke:#333;}.k,.p{stroke-miterlimit:10;}.l{clip-path:url(#g);}.m{fill:#261175;}.n{fill:#b676e4;}.o{clip-path:url(#h);}.p{stroke:#2e3192;}</style><linearGradient id="a" x1="0.743" y1="0.389" x2="0.161" y2="0.956" gradientUnits="objectBoundingBox"><stop offset="0" stop-color="#a15bd3"/><stop offset="1" stop-color="#9515f1" stop-opacity="0"/></linearGradient><linearGradient id="b" x1="0.581" y1="0.227" x2="0.803" y2="1.062" gradientUnits="objectBoundingBox"><stop offset="0" stop-color="#9515f1"/><stop offset="1" stop-color="#9515f1" stop-opacity="0"/></linearGradient><linearGradient id="c" x1="0.334" y1="0.804" x2="0.868" gradientUnits="objectBoundingBox"><stop offset="0" stop-color="#9515f1"/><stop offset="1" stop-color="#a42daa"/></linearGradient><clipPath id="d"><path class="a" d="M2292.186,1387.962l76.544-2.682A13.39,13.39,0,0,1,2382.6,1398.1l2.923,64.5a13.43,13.43,0,0,1-13.288,14.081l-76.769-.3a13.394,13.394,0,0,1-13.421-12.852l-2.7-61.516A13.434,13.434,0,0,1,2292.186,1387.962Z" transform="translate(-2279.33 -1385.27)"/></clipPath><linearGradient id="e" x1="1" y1="0.883" x2="0.055" y2="0.914" xlink:href="#b"/><clipPath id="f"><path d="M-55.794,1861.522a488.6,488.6,0,0,0,56.859,1.7,31.067,31.067,0,0,0,5.709-.9c1.024-.244,1.993-.431,2.929-.613a28.572,28.572,0,0,0,4.16-1.01,42.258,42.258,0,0,1,4.96-1.355c1.169-.267,2.273-.519,3.251-.836a58.066,58.066,0,0,1,5.661-1.439c.757-.166,1.511-.33,2.252-.508,6.1-1.466,12.348-2.334,18.392-3.174l.663-.092c7.029-.977,13.729-.263,20.208.428l1.608.171c1.832.192,3.523.531,5.159.859,1.342.269,2.611.523,3.827.667,3.412.4,6.767.994,9.308,1.463.66.122,1.4.207,2.189.3.913.1,1.858.211,2.872.393,1.19.214,2.277.49,3.328.757.739.188,1.437.365,2.1.5,1.978.406,4.161.7,6.273.975l1.507.2a79.16,79.16,0,0,0,13.681,1.065c4.831-.219,8.55-.461,12.418-1.577.543-.156,1.1-.308,1.666-.462a21.844,21.844,0,0,0,5.133-1.817,35.021,35.021,0,0,0,12.3-14.093,16.243,16.243,0,0,0,.643-1.856l.108-.385.159-.366a18.227,18.227,0,0,1,1.523-2.8c.1-.293.208-.8.294-1.189l.093-.417c.23-1.017.485-1.977.73-2.9a37.454,37.454,0,0,0,.941-4.155,24.045,24.045,0,0,1,.669-2.995,12.861,12.861,0,0,0,.39-1.686c.023-.215.017-.622.012-1.016-.008-.6-.018-1.279.042-2.045.124-1.576.315-3.11.5-4.593.171-1.383.333-2.69.438-3.975a20.608,20.608,0,0,0-.032-2.514c-.046-.915-.1-1.951-.064-3.049.027-.861.09-1.659.151-2.432.069-.871.135-1.694.127-2.417-.018-1.771-.107-3.554-.2-5.441-.056-1.124-.112-2.246-.153-3.366a144.2,144.2,0,0,1,.534-15.6,52.02,52.02,0,0,1,1.119-7.049c.128-.618.258-1.239.38-1.868.115-.59.211-1.25.314-1.948a29.5,29.5,0,0,1,1.176-5.453,15.876,15.876,0,0,1,1.309-2.76c.112-.2.226-.4.331-.6a9.965,9.965,0,0,0,.4-1.044,17.664,17.664,0,0,1,1.2-2.844,44.056,44.056,0,0,1,4.094-5.911l.033-.043c.09-.115.294-.457.443-.706a15.724,15.724,0,0,1,1.639-2.364,13.276,13.276,0,0,1,2.856-2.374c.231-.153.471-.312.586-.4.322-.255.615-.509.9-.757a18.5,18.5,0,0,1,3.978-2.787c.188-.094.481-.28.792-.477a12.319,12.319,0,0,1,5.379-2.133,18.783,18.783,0,0,1,2.239-.087c.235,0,.469,0,.7,0l.432,11.654c-.388.015-.786.015-1.185.013-.215,0-.465,0-.659,0-.182.1-.454.275-.666.409a20.194,20.194,0,0,1-1.808,1.051,7.95,7.95,0,0,0-1.578,1.187c-.372.321-.794.685-1.281,1.071s-.988.72-1.38.98c-.179.119-.412.274-.547.372-.095.142-.257.414-.381.623a17.744,17.744,0,0,1-1.266,1.908l-.032.042a34.179,34.179,0,0,0-3.056,4.333,9.27,9.27,0,0,0-.4,1.052,18.7,18.7,0,0,1-1.061,2.593c-.174.337-.358.665-.543.992-.16.282-.379.668-.429.807a20.3,20.3,0,0,0-.665,3.35c-.117.8-.238,1.626-.4,2.483-.132.679-.271,1.349-.41,2.015a42.527,42.527,0,0,0-.9,5.51,133.162,133.162,0,0,0-.512,14.342c.039,1.068.093,2.139.146,3.211.1,1.917.194,3.9.215,5.9.013,1.246-.08,2.423-.163,3.461-.053.664-.1,1.292-.121,1.871-.019.624.017,1.342.055,2.1a30.072,30.072,0,0,1,.009,4.044c-.124,1.531-.309,3.022-.488,4.465-.176,1.419-.342,2.76-.446,4.077-.018.226-.013.585-.008.964a19.534,19.534,0,0,1-.077,2.421,22.039,22.039,0,0,1-.733,3.508,14.943,14.943,0,0,0-.378,1.586,46.9,46.9,0,0,1-1.212,5.487c-.229.865-.446,1.682-.629,2.493l-.081.362a16.308,16.308,0,0,1-1.4,4.228l-.189.363-.237.332a6.51,6.51,0,0,0-.544.908,27.978,27.978,0,0,1-1.08,2.987l-.145.313c-2.859,5.725-8.077,13.664-16.7,18.973a30.393,30.393,0,0,1-8.191,3.141c-.507.138-1.007.273-1.493.413-5.086,1.467-9.664,1.774-15.119,2.022l-.365.015a91.483,91.483,0,0,1-15.4-1.173l-1.483-.2c-2.313-.307-4.7-.623-7.086-1.112-.925-.19-1.788-.409-2.623-.621-.895-.227-1.739-.441-2.524-.583-.642-.115-1.361-.2-2.122-.283-.907-.1-1.934-.22-2.994-.416-2.514-.464-5.5-.988-8.56-1.35-1.68-.2-3.239-.511-4.747-.814-1.436-.288-2.793-.559-4.083-.695l-1.629-.172c-6.045-.644-11.755-1.252-17.365-.473l-.664.093c-5.766.8-11.728,1.63-17.272,2.962-.82.2-1.654.379-2.492.562-1.633.356-3.175.692-4.546,1.137-1.473.478-2.887.8-4.255,1.113a32.947,32.947,0,0,0-3.628.965,38.882,38.882,0,0,1-5.869,1.478c-.856.166-1.664.322-2.451.509a39.917,39.917,0,0,1-8.087,1.214c-8.952.248-17.715.893-26.782.777l-31.108-.394a9.984,9.984,0,0,0-3.363.341M188.11,1747.9Z" transform="translate(59.868 -1736.3)"/></clipPath><clipPath id="g"><path class="b" d="M2292.949,1403.353l16.2,33.043,37.969,18.418,3.821,18.189-69.326-.972-2.156-53.854S2279.666,1404.649,2292.949,1403.353Z" transform="translate(-2279.455 -1403.353)"/></clipPath><clipPath id="h"><path class="b" d="M979.347,3304.011l-11.527,1.98-1.132-12.8" transform="translate(-966.688 -3293.192)"/></clipPath></defs><g transform="translate(0 0)"><path d="M2540.617,1244.545c-.006.465.52.738.82,1a10.1,10.1,0,0,1,1.563,1.685,23.1,23.1,0,0,1,1.755,2.458c.479.857.814,1.778,1.263,2.649,1.4,2.7,3.519,5.085,5.283,7.519a15.4,15.4,0,0,0,1.464,1.519,14.056,14.056,0,0,0,1.649,1.64c.806.625,1.417,1.472,2.181,2.145.321.283,2.29,1.151,1.934,1.705a12.177,12.177,0,0,1-2,.046c-1.448.111-2.835.634-4.288.71-1.7.09-3.411-.05-5.114,0-.906.025-1.771.272-2.678.261a14.408,14.408,0,0,0-2.276-.015c-.335.052-.615.216-.953.261-.414.055-.854-.065-1.27-.022a12.148,12.148,0,0,0-1.626.379c-.307.078-.644.285-.859-.012s.108-1.1.162-1.379c.3-1.56.556-3.141.8-4.711.354-2.327.894-4.6,1.352-6.9.333-1.671,1.064-3.4,1.088-5.115a6.593,6.593,0,0,1,.049-1.193,6.863,6.863,0,0,0,.187-1.05A23.272,23.272,0,0,0,2540.617,1244.545Z" transform="translate(-2261.89 -1206.088)"/><path class="c" d="M1565.681,1707.031s4.136,51.557-39.487,83.385c-13.677,9.978-24.455,20.974-41.558,29.6l-14.867-2.144,51.035-48.216s14.838-68.027,33.58-82.281" transform="translate(-1313.906 -1601.944)"/><path class="d" d="M2195.677,1233.864l-.189-.244c.491-.628.194-2.26.19-3.038a31.281,31.281,0,0,1,.295-3.532,23.231,23.231,0,0,1,.186-3.245c.425-1.724,2.346-2.2,3.477-3.457a29.142,29.142,0,0,1,3.145-2.828,29.6,29.6,0,0,0,6.459-8.2,42.884,42.884,0,0,0,3.256-5.985,54.416,54.416,0,0,0,2.048-6.824,43.133,43.133,0,0,0,1.433-6.029c.089-.879.051-1.742.058-2.621l-.969-1.3c-.146-.82-1.095-1.411-1.667-1.913-.875-.766-1.681-1.6-2.534-2.4a19.6,19.6,0,0,0-5.494-3.482c-1.584-.71-3.482-.724-5.161-1.037a8.882,8.882,0,0,0-4.6.155,18.493,18.493,0,0,0-4.154,2.083,16.925,16.925,0,0,0-4.569,3.737c-1.208,1.653-2.677,2.926-3.728,4.71-.56.95-1.165,1.879-1.708,2.839-.507.9-.807,1.883-1.351,2.754a28.345,28.345,0,0,0-2.514,6c-.652,1.893-1.5,3.716-2.073,5.637a80.464,80.464,0,0,0-2.38,13.888,52.614,52.614,0,0,0-.4,6.39c.016,1.491-.342,2.878-.314,4.356.019,1.036-.339,1.893-.333,2.926,0,.522.225,1.608-.188,1.969l.188-.024" transform="translate(-1935.164 -1146.166)"/><path class="e" d="M2186.765,1711.178s46.153,21.444,52.25,74.419c1.912,16.609,5.368,31.243,4.461,50.145l-11.151,2.236-13.7-57.81s-47.12-41.121-47.12-67.951" transform="translate(-1934.811 -1623.222)"/><path class="a" d="M2461.035,901.277c.511-.758,1.222-1.34,1.762-2.07a3.735,3.735,0,0,1,1.175-1,13.4,13.4,0,0,1,3.044-1.091,7.141,7.141,0,0,1,4.092.154,15.581,15.581,0,0,1,2.593,1.1c.917.493,1.876.945,2.767,1.481a8.452,8.452,0,0,1,1.919,1.82,7.777,7.777,0,0,1,.725,1.042c.224.406.531.741.762,1.147s.369.926.574,1.354a11.154,11.154,0,0,1,.611,1.4c.14.474.07.985.186,1.476a8.623,8.623,0,0,1,.175,1.458,13.616,13.616,0,0,1-.438,4.854,11.543,11.543,0,0,1-.826,2.474c-.425.775-.833,1.56-1.25,2.339a20.683,20.683,0,0,1-3.989,4.96,5.608,5.608,0,0,1-4.227,1.816c-.855-.071-1.72-.041-2.579-.041-1.08,0-1.781-.185-2.523.633a17.087,17.087,0,0,0-2.53,3.245,31.6,31.6,0,0,1-1.331,2.963.24.24,0,0,0,.131-.277c-2.294-1.764-5.158-2.741-7.6-4.26-.88-.548-2.164-1.58-3.246-1.713a6.307,6.307,0,0,1,.865-.9,13.672,13.672,0,0,0,.971-1.445c.372-.545.74-1.114,1.127-1.647a30.578,30.578,0,0,0,1.527-2.675c.268-.456.7-.854.986-1.285a7.466,7.466,0,0,0,.637-1.379,4.053,4.053,0,0,0,.244-.987c.048-.268.208-.517.251-.712a4.436,4.436,0,0,0-.137-1.518,3.153,3.153,0,0,1,.188-1.4c.333-1.271.42-2.64.664-3.932A19.4,19.4,0,0,1,2461.035,901.277Z" transform="translate(-2184.674 -895.31)"/><g transform="translate(248.131 53.385)"><path class="f" d="M2292.186,1387.962l76.544-2.682A13.39,13.39,0,0,1,2382.6,1398.1l2.923,64.5a13.43,13.43,0,0,1-13.288,14.081l-76.769-.3a13.394,13.394,0,0,1-13.421-12.852l-2.7-61.516A13.434,13.434,0,0,1,2292.186,1387.962Z" transform="translate(-2279.33 -1385.27)"/><g class="g" transform="translate(0 0)"><path class="h" d="M3140.012,1360.1l-19.421-.6,3.877,94.515,16.935-.269Z" transform="translate(-3031.354 -1362.234)"/></g></g><path d="M2737.113,2929.592q0,.217.01.435c-.01-.483-.052-.977-.038-1.459.015-.5.2-.9.218-1.414a6.486,6.486,0,0,1,.455-1.9,2.9,2.9,0,0,1,2.231-1.9l9.915-1.743a2.839,2.839,0,0,1,2.816,1.116c.027.037.052.07.074.1a14.115,14.115,0,0,0,1.749,2.031,24.954,24.954,0,0,0,3.057,1.976c.858.538,1.8.743,2.619,1.341.341.249,1.574,1.318,1.5,1.8,0-.055-.005-.109-.009-.163" transform="translate(-2440.395 -2705.224)"/><path class="a" d="M3212.568,1547.455h0a6.238,6.238,0,0,0-6.371-6.1l-34.7.749a.848.848,0,0,0-.83.866l.233,10.776a.847.847,0,0,0,.866.83l34.7-.748A6.238,6.238,0,0,0,3212.568,1547.455Z" transform="translate(-2827.991 -1471.41)"/><path class="a" d="M3221.426,1751.751l-.021-.947a5.763,5.763,0,0,0-5.887-5.639l-35.123.758a.894.894,0,0,0-.875.913l.226,10.457a1.121,1.121,0,0,0,1.145,1.1l34.9-.753A5.764,5.764,0,0,0,3221.426,1751.751Z" transform="translate(-2835.901 -1653.603)"/><path class="a" d="M3230.249,1955.3v-.062a6.206,6.206,0,0,0-6.338-6.071l-34.728.749a.849.849,0,0,0-.83.867l.232,10.776a.849.849,0,0,0,.867.83l34.727-.75A6.206,6.206,0,0,0,3230.249,1955.3Z" transform="translate(-2843.795 -1835.961)"/><path class="d" d="M2521.854,883.891a6.257,6.257,0,0,0-1.219-.892,10.059,10.059,0,0,0-1.09-.612,7.168,7.168,0,0,0-1.341-.366,11.936,11.936,0,0,0-1.376.006c-.5,0-1-.019-1.494,0a9.5,9.5,0,0,0-1.737.324,12.783,12.783,0,0,0-2.078.851,7.271,7.271,0,0,0-.885.62,6.5,6.5,0,0,0-.851.543,7.47,7.47,0,0,0-1.548,1.59c-.222.323-.4.659-.639.975a10.39,10.39,0,0,0-.711.927,15.633,15.633,0,0,0-1.306,2.584,9.675,9.675,0,0,0-.408,2.286c-.036.458-.17.857-.166,1.331,0,.412,0,.825,0,1.237a12.687,12.687,0,0,0,.162,2.4c.171.918.294,1.821.45,2.735.052.3-.128,1.644.2,1.688l.162-.648a3.471,3.471,0,0,0,.811-.32,4.147,4.147,0,0,0,.947-.526c.255-.244.29-.764.392-1.07a1.478,1.478,0,0,0-.04-1.161,8.019,8.019,0,0,1-.655-2.555,2.4,2.4,0,0,1,.077-.934,4.147,4.147,0,0,1,.534-.758,1.342,1.342,0,0,1,1.3-.778,4.235,4.235,0,0,1,1.656.2,4.186,4.186,0,0,1,1.453.972c.479.478.821,1.081,1.3,1.583.247.257.4.551.64.809a7.171,7.171,0,0,0,.7.608,5.2,5.2,0,0,0,1.252.733,2.21,2.21,0,0,0,2.555-.728,4.61,4.61,0,0,0,.439-1.1,5.016,5.016,0,0,0,.4-1.3c.031-.259.135-.382.17-.64a5.519,5.519,0,0,0,0-.733c0-.606.168-1.107.162-1.7-.007-.562.27-1.036.233-1.588a2.073,2.073,0,0,1,.185-.868,4.1,4.1,0,0,1,1.1-1.681,8.834,8.834,0,0,1,.747-.541,2.123,2.123,0,0,1,.731-.283c.241-.065.487-.062.729-.124.146-.037.151.021.26.045s.2,0,.3.014c.414.06.785.218,1.188.253-.209-.224-.422-.455-.622-.688-.056-.065-.117-.128-.179-.189-.084-.081-.093-.169-.156-.243-.088-.1-.254-.16-.344-.263-.07-.08-.108-.187-.187-.265-.3-.3-.686-.452-1.006-.722Q2522.445,884.417,2521.854,883.891Z" transform="translate(-2232.932 -881.998)"/><g transform="translate(0 90.62)"><path class="i" d="M-55.794,1864.755A476.45,476.45,0,0,0,1.065,1866.5a30.353,30.353,0,0,0,5.709-.925c1.024-.25,1.993-.442,2.929-.628a28.038,28.038,0,0,0,4.16-1.036,41.439,41.439,0,0,1,4.96-1.39c1.169-.274,2.273-.532,3.251-.858a56.916,56.916,0,0,1,5.661-1.476c.757-.17,1.511-.338,2.252-.521,6.1-1.5,12.348-2.394,18.392-3.256l.663-.094c7.029-1,13.729-.27,20.208.439l1.608.175c1.832.2,3.523.544,5.159.881,1.342.276,2.611.536,3.827.684,3.412.414,6.767,1.02,9.308,1.5.66.125,1.4.212,2.189.3.913.106,1.858.216,2.872.4,1.19.22,2.277.5,3.328.776.739.193,1.437.374,2.1.513,1.978.416,4.161.713,6.273,1l1.507.206a77.18,77.18,0,0,0,13.681,1.093c4.831-.225,8.55-.473,12.418-1.617.543-.161,1.1-.316,1.666-.474a21.494,21.494,0,0,0,5.133-1.864c4.856-3.068,9.218-8.2,12.3-14.457a16.937,16.937,0,0,0,.643-1.9l.108-.4.159-.376a18.855,18.855,0,0,1,1.523-2.877c.1-.3.208-.819.294-1.219l.093-.428c.23-1.044.485-2.028.73-2.979a39.261,39.261,0,0,0,.941-4.262,25.209,25.209,0,0,1,.669-3.073,13.481,13.481,0,0,0,.39-1.729c.023-.221.017-.638.012-1.042-.008-.615-.018-1.312.042-2.1.124-1.616.315-3.19.5-4.712.171-1.419.333-2.76.438-4.078a21.683,21.683,0,0,0-.032-2.579c-.046-.938-.1-2-.064-3.127.027-.883.09-1.7.151-2.495.069-.894.135-1.738.127-2.48-.018-1.817-.107-3.646-.2-5.581-.056-1.153-.112-2.3-.153-3.453a151.725,151.725,0,0,1,.534-16.006,54.626,54.626,0,0,1,1.119-7.23c.128-.634.258-1.272.38-1.916.115-.6.211-1.282.314-2a30.944,30.944,0,0,1,1.176-5.594,16.464,16.464,0,0,1,1.309-2.831c.112-.2.226-.406.331-.615a10.414,10.414,0,0,0,.4-1.071,18.39,18.39,0,0,1,1.2-2.918,45.258,45.258,0,0,1,4.094-6.064l.033-.044c.09-.118.294-.469.443-.725a16.149,16.149,0,0,1,1.639-2.425,13.348,13.348,0,0,1,2.856-2.435c.231-.158.471-.321.586-.415.322-.262.615-.522.9-.776a18.5,18.5,0,0,1,3.978-2.859c.188-.1.481-.287.792-.489a12.155,12.155,0,0,1,5.379-2.188,18.3,18.3,0,0,1,2.239-.089c.235,0,.469,0,.7,0l.432,11.955c-.388.015-.786.015-1.185.013-.215,0-.465,0-.659,0-.182.105-.454.282-.666.42a20.031,20.031,0,0,1-1.808,1.078,7.966,7.966,0,0,0-1.578,1.218c-.372.329-.794.7-1.281,1.1s-.988.739-1.38,1.005c-.179.122-.412.281-.547.382-.095.146-.257.425-.381.639a18.223,18.223,0,0,1-1.266,1.958l-.032.043a35.094,35.094,0,0,0-3.056,4.445,9.655,9.655,0,0,0-.4,1.079,19.461,19.461,0,0,1-1.061,2.66c-.174.346-.358.682-.543,1.017-.16.29-.379.686-.429.828a21.289,21.289,0,0,0-.665,3.436c-.117.82-.238,1.668-.4,2.547-.132.7-.271,1.383-.41,2.067a44.664,44.664,0,0,0-.9,5.653,140.1,140.1,0,0,0-.512,14.712c.039,1.1.093,2.194.146,3.294.1,1.966.194,4,.215,6.053.013,1.278-.08,2.486-.163,3.551-.053.682-.1,1.325-.121,1.919-.019.64.017,1.376.055,2.156a31.639,31.639,0,0,1,.009,4.148c-.124,1.57-.309,3.1-.488,4.58-.176,1.456-.342,2.831-.446,4.182-.018.232-.013.6-.008.989a20.553,20.553,0,0,1-.077,2.483,23.115,23.115,0,0,1-.733,3.6,15.667,15.667,0,0,0-.378,1.627,49.171,49.171,0,0,1-1.212,5.629c-.229.887-.446,1.725-.629,2.557l-.081.371a17.029,17.029,0,0,1-1.4,4.337l-.189.372-.237.341a6.7,6.7,0,0,0-.544.932,29.207,29.207,0,0,1-1.08,3.064l-.145.321c-2.859,5.873-8.077,14.017-16.7,19.463a29.924,29.924,0,0,1-8.191,3.222c-.507.142-1.007.28-1.493.424-5.086,1.5-9.664,1.819-15.119,2.074l-.365.016a89.266,89.266,0,0,1-15.4-1.2l-1.483-.2c-2.313-.315-4.7-.64-7.086-1.14-.925-.195-1.788-.42-2.623-.637-.895-.233-1.739-.453-2.524-.6-.642-.119-1.361-.2-2.122-.291-.907-.106-1.934-.226-2.994-.427-2.514-.476-5.5-1.013-8.56-1.385-1.68-.2-3.239-.524-4.747-.835-1.436-.3-2.793-.574-4.083-.713l-1.629-.177c-6.045-.661-11.755-1.284-17.365-.485l-.664.1c-5.766.822-11.728,1.672-17.272,3.038-.82.2-1.654.389-2.492.577-1.633.365-3.175.71-4.546,1.167-1.473.491-2.887.822-4.255,1.142a32.383,32.383,0,0,0-3.628.99,38.08,38.08,0,0,1-5.869,1.517c-.856.17-1.664.331-2.451.522a38.985,38.985,0,0,1-8.087,1.245c-8.952.254-17.715.916-26.782.8l-31.108-.4a9.74,9.74,0,0,0-3.363.349m247.978-131Z" transform="translate(59.868 -1736.3)"/><g class="j" transform="translate(0 0)"><path class="k" d="M460.659,1806.334s75.393-12.521,97.587-4.1,52.265,6.329,56.581-21.548-.444-34.709-.361-49.1c.2-34.046,18.344-42.985,30.249-49.748" transform="translate(-405.444 -1687.612)"/></g></g><g transform="translate(248.144 55.303)"><g class="l" transform="translate(0 0)"><path class="m" d="M2331.852,1457.83a93.241,93.241,0,0,1-33.756-7.94,69.915,69.915,0,0,1-23.474-17.229c-5.5-6.282-4.716-16.565,1.533-22.338" transform="translate(-2271.842 -1409.583)"/></g></g><path class="n" d="M2335.121,1218.563a7.092,7.092,0,0,1,.35,1.332c.146,1.211.452,2.482.531,3.7a26.859,26.859,0,0,0,.2,3.185c.184,1.011.09,2.032.271,3.044a18.57,18.57,0,0,1,.319,2.784,13.632,13.632,0,0,0,1.419,5.268c.635,1.345,1.488,2.506,2.044,3.884a43.018,43.018,0,0,1,1.735,4.01,12.578,12.578,0,0,1,.553,3.5c0,.606,0,1.212.007,1.818a9.937,9.937,0,0,1-.295,1.516,9.12,9.12,0,0,0-1.868.674,16.6,16.6,0,0,1-2.3.638c-1.424.246-2.66.876-4.091,1.089a5.091,5.091,0,0,0-1.125.21c-.478.186-.843.582-1.323.783a18.426,18.426,0,0,1-3.572.888c-.917.176-1.645.753-2.589.761-.216,1.365-1.459-1.324-1.669-1.682-.447-.759-.611-1.574-1-2.327-.36-.7-1.02-1.185-1.4-1.917-4.54-8.7-8.6-17.941-10.045-27.734-.174-1.177-.33-2.356-.451-3.54-.126-1.243-.016-2.605-.238-3.823-.056-.305-.194-.585-.225-.908a8.324,8.324,0,0,1,.337-2.268,7.482,7.482,0,0,1,.763-2.786,15.867,15.867,0,0,0,.868-1.474,10.4,10.4,0,0,1,1.937-2.278,3.249,3.249,0,0,1,.6-.464c.442-.319.814-.725,1.257-1.052a5.559,5.559,0,0,1,1.9-.922,4.92,4.92,0,0,0,1.214-.266,7.135,7.135,0,0,1,.826-.239,23.048,23.048,0,0,1,3.771-.534c.28-.015.522-.141.8-.141a3.74,3.74,0,0,1,1.464.625c.8.383,1.484.885,2.267,1.281s1.271,1.255,1.873,1.87a18.444,18.444,0,0,1,1.949,2.611c1.319,1.92,1.528,3.941,2.223,6.063.234.713.349,1.416.517,2.145C2334.979,1218.115,2335.049,1218.339,2335.121,1218.563Z" transform="translate(-2058.93 -1169.209)"/><g transform="translate(266.18 78.909)"><path class="a" d="M2451.161,1635.719a10.318,10.318,0,0,0,1.129,1.274c.707.64,1.533.967,2.242,1.646a10.8,10.8,0,0,0,2.6,1.627c1.05.565,2.151,1.039,3.181,1.636,3.522,2.041,7.709,3.192,11.563,4.406,2.893.911,5.48,2.6,8.493,3.039a40.612,40.612,0,0,1,5.012,1.364c.761.211,1.56.315,2.334.526.578.157,1.45.949,2.027.844.692-.125,1.12-1.613,1.395-2.13.462-.871.983-1.612,1.433-2.492-.707-.676-1.82-.752-2.627-1.272-.209-.134-.359-.332-.578-.457-.661-.375-1.476-.563-2.169-.9a50.7,50.7,0,0,1-4.548-2.948,41.447,41.447,0,0,1-7.682-6.407c-.837-.856-1.837-1.46-2.656-2.332a18.942,18.942,0,0,0-1.292-1.661,10.623,10.623,0,0,1-.9-.605c-1.136-1.136-2.156-2.346-3.232-3.577-.405-.464-1.356-1.529-2.079-1.405-.447.076-1.078.729-1.468.97a41.293,41.293,0,0,1-3.93,1.886c-1.055.506-1.885,1.339-2.96,1.818-.756.337-1.485.7-2.254.955a22.339,22.339,0,0,0-2.317.877,23.413,23.413,0,0,1-2.4,1.383,5.66,5.66,0,0,1,1.032,1.143C2450.737,1635.183,2450.948,1635.451,2451.161,1635.719Z" transform="translate(-2449.48 -1625.888)"/><path class="a" d="M2792.071,1818.416c.293-.1.782.2,1.042.309a4.654,4.654,0,0,1,1.3.884,12.8,12.8,0,0,0,1.186.857c.385.269.585.671.936.969a8.316,8.316,0,0,1,.968.79,18.969,18.969,0,0,0,1.349,1.427,4.2,4.2,0,0,0,.826.649,2.371,2.371,0,0,0,.64.251c1.089-.078-.631-1.477-.736-1.649-.13-.213-.538-.706-.185-.819s1.616,1.172,1.891,1.386c.58.451,1.146.984,1.74,1.405a1.151,1.151,0,0,0,.851.275c.41-.018.447-.024.241-.434a5.376,5.376,0,0,0-1.029-1.3c-.482-.5-.946-1.017-1.461-1.484-.269-.244-.832-.574-.887-.97.4-.346,1.379.487,1.664.692.585.422,1.205.757,1.78,1.209a4.712,4.712,0,0,0,1.621.9c.284.079.874.36,1.128.206.917-.556-1.259-2.324-1.578-2.635a11.452,11.452,0,0,0-1.817-1.421,7.212,7.212,0,0,1-.738-.519,2.482,2.482,0,0,0-.354-.3c.25-.365.588-.142.891,0a16.472,16.472,0,0,0,2.406,1.041c.384.107,1.318.4,1.471-.188.139-.528-.672-.911-1.036-1.094-.714-.36-1.537-.476-2.266-.8-.468-.21-.905-.534-1.354-.769a3.144,3.144,0,0,1-.966-.718c-.248-.333-.039-.551.232-.825.54-.547,1.275-1.063,1.352-1.881.032-.343-.079-.411-.489-.468a2.453,2.453,0,0,0-1.18.208,16.338,16.338,0,0,1-2.652.467,6.5,6.5,0,0,1-.955.149,2.851,2.851,0,0,1-1.161-.3" transform="translate(-2755.731 -1793.483)"/></g><g transform="translate(108.892 255.769)"><g class="o" transform="translate(0 0)"><path class="p" d="M1008.275,3274.511h-.049c.319.021.643.053.964.079a5.131,5.131,0,0,1,1.291.317,13.007,13.007,0,0,1,1.956.8,41.624,41.624,0,0,1,3.726,2.324,5.423,5.423,0,0,1,1.28.989.856.856,0,0,1,.238.582" transform="translate(-1003.82 -3276.492)"/></g></g></g></svg>