<svg xmlns="http://www.w3.org/2000/svg" xmlns:xlink="http://www.w3.org/1999/xlink" width="53.732" height="53.981" viewBox="0 0 53.732 53.981">
  <defs>
    <linearGradient id="linear-gradient" x1="0.5" x2="0.5" y2="1" gradientUnits="objectBoundingBox">
      <stop offset="0" stop-color="#9515f1"/>
      <stop offset="1" stop-color="#a42daa"/>
    </linearGradient>
  </defs>
  <g id="Grupo_9866" data-name="Grupo 9866" transform="translate(1732.351 -6.001)">
    <g id="Grupo_9861" data-name="Grupo 9861" transform="translate(-1732.351 6.001)">
      <path id="Trazado_16292" data-name="Trazado 16292" d="M-1695.239,35.194V46.487h-33.738V11.726a2.353,2.353,0,0,1,2.351-2.351h29.036a2.353,2.353,0,0,1,2.351,2.351v5.491c.066-.031.13-.064.2-.094a13.45,13.45,0,0,1,3.177-.867V11.726A5.731,5.731,0,0,0-1697.59,6h-29.037a5.731,5.731,0,0,0-5.725,5.725V54.257a5.732,5.732,0,0,0,5.725,5.725h29.036a5.732,5.732,0,0,0,5.725-5.725V36.6A13.07,13.07,0,0,1-1695.239,35.194Zm0,19.063a2.353,2.353,0,0,1-2.351,2.351h-29.037a2.353,2.353,0,0,1-2.351-2.351v-4.4h33.738Z" transform="translate(1732.351 -6.001)"/>
    </g>
    <g id="Grupo_9862" data-name="Grupo 9862" transform="translate(-1713.795 51.547)">
      <circle id="Elipse_199" data-name="Elipse 199" cx="1.687" cy="1.687" r="1.687" transform="translate(0 0)"/>
    </g>
    <g id="Grupo_9863" data-name="Grupo 9863" transform="translate(-1723.583 18.129)">
      <path id="Trazado_16293" data-name="Trazado 16293" d="M-1638.5,122.245a11,11,0,0,0-6.363-6.9,6.692,6.692,0,0,0,1.7-4.435,6.754,6.754,0,0,0-6.748-6.748,6.754,6.754,0,0,0-6.748,6.748,6.692,6.692,0,0,0,1.7,4.435,11,11,0,0,0-6.363,6.9,1.69,1.69,0,0,0,.27,1.484,1.691,1.691,0,0,0,1.349.674h19.578a1.692,1.692,0,0,0,1.349-.674A1.69,1.69,0,0,0-1638.5,122.245Zm-14.782-11.337a3.378,3.378,0,0,1,3.374-3.374,3.378,3.378,0,0,1,3.374,3.374,3.378,3.378,0,0,1-3.374,3.374A3.378,3.378,0,0,1-1653.286,110.907Zm-3.723,10.121a8.783,8.783,0,0,1,7.1-3.374,8.782,8.782,0,0,1,7.1,3.374Z" transform="translate(1661.388 -104.16)"/>
    </g>
    <g id="Grupo_9864" data-name="Grupo 9864" transform="translate(-1702.478 14.269)">
      <path id="Trazado_16294" data-name="Trazado 16294" d="M-1478.636,96.775a11.943,11.943,0,0,1-11.93-11.929,11.943,11.943,0,0,1,11.93-11.93,11.943,11.943,0,0,1,11.929,11.93A11.943,11.943,0,0,1-1478.636,96.775Zm0-20.77a8.851,8.851,0,0,0-8.841,8.841,8.851,8.851,0,0,0,8.841,8.841,8.851,8.851,0,0,0,8.841-8.841A8.851,8.851,0,0,0-1478.636,76Z" transform="translate(1490.566 -72.916)" fill="url(#linear-gradient)"/>
    </g>
    <g id="Grupo_9865" data-name="Grupo 9865" transform="translate(-1696.91 22.394)">
      <path id="Trazado_16295" data-name="Trazado 16295" d="M-1440.413,147.37a1.539,1.539,0,0,1-1.092-.452l-3.546-3.546a1.544,1.544,0,0,1,0-2.184,1.544,1.544,0,0,1,2.184,0l2.454,2.454,4.508-4.508a1.544,1.544,0,0,1,2.184,0,1.544,1.544,0,0,1,0,2.184l-5.6,5.6A1.54,1.54,0,0,1-1440.413,147.37Z" transform="translate(1445.504 -138.681)" fill="url(#linear-gradient)"/>
    </g>
  </g>
</svg>
