<svg xmlns="http://www.w3.org/2000/svg" xmlns:xlink="http://www.w3.org/1999/xlink" width="54.185" height="53.855" viewBox="0 0 54.185 53.855">
  <defs>
    <linearGradient id="linear-gradient" x1="0.5" x2="0.5" y2="1" gradientUnits="objectBoundingBox">
      <stop offset="0" stop-color="#a42daa"/>
      <stop offset="1" stop-color="#9515f1"/>
    </linearGradient>
  </defs>
  <g id="Grupo_9873" data-name="Grupo 9873" transform="translate(1732.351 -639.192)">
    <g id="Grupo_9868" data-name="Grupo 9868" transform="translate(-1732.351 639.192)">
      <g id="Grupo_9867" data-name="Grupo 9867" transform="translate(0)">
        <path id="Trazado_16298" data-name="Trazado 16298" d="M-1695.326,665.738v13.845h-33.659V644.9a2.348,2.348,0,0,1,2.345-2.345h28.969a2.348,2.348,0,0,1,2.345,2.345v8.41c0-1.641.13-.2.2-.228a13.415,13.415,0,0,1,3.169-.865V644.9a5.718,5.718,0,0,0-5.711-5.711h-28.969a5.718,5.718,0,0,0-5.711,5.711v42.433a5.718,5.718,0,0,0,5.711,5.711h28.969a5.718,5.718,0,0,0,5.711-5.711v-20.2A13.054,13.054,0,0,1-1695.326,665.738Zm0,21.6a2.348,2.348,0,0,1-2.345,2.345h-28.969a2.348,2.348,0,0,1-2.345-2.345v-4.387h33.659Z" transform="translate(1732.351 -639.192)"/>
      </g>
    </g>
    <g id="Grupo_9870" data-name="Grupo 9870" transform="translate(-1723.604 651.291)">
      <g id="Grupo_9869" data-name="Grupo 9869" transform="translate(0)">
        <path id="Trazado_16299" data-name="Trazado 16299" d="M-1638.558,755.393a10.97,10.97,0,0,0-6.348-6.886,6.677,6.677,0,0,0,1.7-4.425,6.739,6.739,0,0,0-6.732-6.732,6.739,6.739,0,0,0-6.732,6.732,6.677,6.677,0,0,0,1.7,4.425,10.971,10.971,0,0,0-6.348,6.886,1.686,1.686,0,0,0,.27,1.481,1.687,1.687,0,0,0,1.346.672h19.532a1.687,1.687,0,0,0,1.346-.672A1.686,1.686,0,0,0-1638.558,755.393Zm-14.747-11.311a3.37,3.37,0,0,1,3.366-3.366,3.371,3.371,0,0,1,3.366,3.366,3.37,3.37,0,0,1-3.366,3.366A3.37,3.37,0,0,1-1653.306,744.083Zm-3.714,10.1a8.762,8.762,0,0,1,7.08-3.366,8.762,8.762,0,0,1,7.08,3.366Z" transform="translate(1661.388 -737.351)"/>
      </g>
    </g>
    <g id="Grupo_9871" data-name="Grupo 9871" transform="translate(-1709.006 651.266)">
      <path id="Trazado_16300" data-name="Trazado 16300" d="M-1527.537,753.443a19.009,19.009,0,0,1-13.484-5.576l-1.485-1.485a1.541,1.541,0,0,1,0-2.179l1.485-1.485a19.09,19.09,0,0,1,26.967,0l1.485,1.485a1.54,1.54,0,0,1,0,2.179l-1.485,1.485A19.009,19.009,0,0,1-1527.537,753.443Zm-11.7-8.151.4.4a16,16,0,0,0,22.609,0l.4-.4-.4-.4a16.005,16.005,0,0,0-22.609,0Z" transform="translate(1542.957 -737.141)" fill="url(#linear-gradient)"/>
    </g>
    <g id="Grupo_9872" data-name="Grupo 9872" transform="translate(-1690.664 648.513) rotate(60)">
      <path id="Trazado_16301" data-name="Trazado 16301" d="M7.982,15.964a7.982,7.982,0,1,1,7.982-7.982A7.991,7.991,0,0,1,7.982,15.964Zm0-12.882a4.9,4.9,0,1,0,4.9,4.9A4.906,4.906,0,0,0,7.982,3.082Z" transform="translate(0 0)" fill="url(#linear-gradient)"/>
    </g>
  </g>
</svg>
